<svg xmlns="http://www.w3.org/2000/svg" xmlns:xlink="http://www.w3.org/1999/xlink" width="500" zoomAndPan="magnify" viewBox="0 0 375 113.999999" height="152" preserveAspectRatio="xMidYMid meet" version="1.0"><defs><g/><clipPath id="326275dcb9"><path d="M 0 0.136719 L 366.488281 0.136719 L 366.488281 107.40625 L 0 107.40625 Z M 0 0.136719 " clip-rule="nonzero"/></clipPath><clipPath id="40a13a2e76"><path d="M 7.960938 6.648438 L 374.449219 6.648438 L 374.449219 113.917969 L 7.960938 113.917969 Z M 7.960938 6.648438 " clip-rule="nonzero"/></clipPath></defs><g clip-path="url(#326275dcb9)"><path fill="#000000" d="M 55.605469 105.816406 L 313.648438 105.816406 C 342.832031 105.816406 366.488281 82.164062 366.488281 52.976562 C 366.488281 23.796875 342.832031 0.140625 313.648438 0.140625 L 55.605469 0.140625 C 26.425781 0.140625 2.765625 23.796875 2.765625 52.976562 C 2.765625 64.355469 6.375 74.882812 12.492188 83.507812 C 9.269531 93.753906 0 107.496094 0 107.496094 C 0 107.496094 15.121094 99.289062 24.148438 95.429688 C 32.933594 101.957031 43.820312 105.816406 55.605469 105.816406 " fill-opacity="1" fill-rule="nonzero"/></g><g clip-path="url(#40a13a2e76)"><path fill="#ffde59" d="M 63.566406 112.328125 L 321.609375 112.328125 C 350.796875 112.328125 374.449219 88.671875 374.449219 59.488281 C 374.449219 30.308594 350.796875 6.652344 321.609375 6.652344 L 63.566406 6.652344 C 34.386719 6.652344 10.726562 30.308594 10.726562 59.488281 C 10.726562 70.867188 14.335938 81.394531 20.453125 90.019531 C 17.230469 100.265625 7.960938 114.007812 7.960938 114.007812 C 7.960938 114.007812 23.082031 105.800781 32.109375 101.941406 C 40.898438 108.464844 51.78125 112.328125 63.566406 112.328125 " fill-opacity="1" fill-rule="nonzero"/></g><g fill="#000000" fill-opacity="1"><g transform="translate(20.871852, 77.856049)"><g><path d="M 35.332031 -17.175781 C 35.148438 -15.820312 34.839844 -13.480469 34.53125 -10.648438 C 33.425781 -10.585938 32.253906 -10.527344 31.085938 -10.527344 C 24.253906 -10.527344 22.46875 -12.863281 22.46875 -20.496094 C 22.46875 -26.46875 24.5 -29.117188 30.960938 -29.117188 C 32.5 -29.117188 33.855469 -29.054688 35.085938 -28.992188 C 35.085938 -27.207031 35.148438 -25.300781 35.148438 -22.898438 C 39.886719 -22.589844 45.367188 -22.589844 50.230469 -22.898438 C 50.96875 -27.453125 51.582031 -33.117188 51.644531 -40.257812 C 47.519531 -40.933594 40.195312 -41.609375 33.363281 -41.609375 C 9.480469 -41.609375 1.230469 -36.316406 1.230469 -18.898438 C 1.230469 -4 8.308594 1.230469 29.730469 1.230469 C 37.300781 1.230469 44.503906 1.046875 50.84375 0 C 51.089844 -4.800781 51.089844 -13.480469 50.96875 -17.175781 C 46.289062 -17.480469 40.132812 -17.480469 35.332031 -17.175781 Z M 35.332031 -17.175781 "/></g></g></g><g fill="#000000" fill-opacity="1"><g transform="translate(73.744789, 77.856049)"><g><path d="M 1.230469 -14.402344 C 1.230469 -2.585938 5.417969 1.230469 23.699219 1.230469 C 42.289062 1.230469 46.964844 -2.585938 46.964844 -16.621094 C 46.964844 -28.4375 42.105469 -32.625 24.929688 -32.625 C 5.972656 -32.625 1.230469 -28.4375 1.230469 -14.402344 Z M 28.253906 -15.511719 C 28.253906 -11.632812 27.636719 -9.664062 24.066406 -9.664062 C 20.683594 -9.664062 20.003906 -11.574219 20.003906 -15.695312 C 20.003906 -19.390625 20.496094 -21.542969 24.3125 -21.542969 C 27.761719 -21.542969 28.253906 -19.453125 28.253906 -15.511719 Z M 28.253906 -15.511719 "/></g></g></g><g fill="#000000" fill-opacity="1"><g transform="translate(121.939801, 77.856049)"><g><path d="M 49.242188 -10.648438 C 49.738281 -13.359375 50.289062 -17.605469 50.230469 -21.359375 L 50.167969 -23.207031 C 49.859375 -31.578125 45.613281 -32.625 37.117188 -32.625 C 30.101562 -32.625 26.222656 -31.640625 22.960938 -24.007812 L 22.773438 -24.007812 L 20.496094 -31.394531 C 15.140625 -31.699219 7.757812 -31.699219 2.402344 -31.394531 C 1.601562 -27.945312 1.414062 -24.929688 1.292969 -20.742188 L 6.09375 -20.742188 L 6.09375 -10.648438 L 2.953125 -10.648438 C 2.339844 -7.140625 2.09375 -3.632812 1.910156 0 C 8.308594 0.371094 20.742188 0.371094 27.144531 0 C 27.824219 -3.261719 28.191406 -6.957031 28.128906 -10.648438 L 24.191406 -10.648438 L 24.191406 -19.390625 C 25.359375 -19.636719 26.46875 -19.757812 27.578125 -19.757812 C 30.222656 -19.757812 31.453125 -19.265625 31.515625 -15.820312 L 31.578125 -10.585938 C 31.453125 -7.695312 31.085938 -3.140625 30.777344 0 C 36.316406 0.371094 46.964844 0.429688 52.199219 0 C 53 -3.140625 53.367188 -6.957031 53.367188 -10.648438 Z M 49.242188 -10.648438 "/></g></g></g><g fill="#000000" fill-opacity="1"><g transform="translate(175.982228, 77.856049)"><g><path d="M 49.242188 -10.648438 C 49.738281 -13.359375 50.289062 -17.605469 50.230469 -21.359375 L 50.167969 -23.207031 C 49.859375 -31.578125 45.613281 -32.625 37.117188 -32.625 C 30.101562 -32.625 26.222656 -31.640625 22.960938 -24.007812 L 22.773438 -24.007812 L 20.496094 -31.394531 C 15.140625 -31.699219 7.757812 -31.699219 2.402344 -31.394531 C 1.601562 -27.945312 1.414062 -24.929688 1.292969 -20.742188 L 6.09375 -20.742188 L 6.09375 -10.648438 L 2.953125 -10.648438 C 2.339844 -7.140625 2.09375 -3.632812 1.910156 0 C 8.308594 0.371094 20.742188 0.371094 27.144531 0 C 27.824219 -3.261719 28.191406 -6.957031 28.128906 -10.648438 L 24.191406 -10.648438 L 24.191406 -19.390625 C 25.359375 -19.636719 26.46875 -19.757812 27.578125 -19.757812 C 30.222656 -19.757812 31.453125 -19.265625 31.515625 -15.820312 L 31.578125 -10.585938 C 31.453125 -7.695312 31.085938 -3.140625 30.777344 0 C 36.316406 0.371094 46.964844 0.429688 52.199219 0 C 53 -3.140625 53.367188 -6.957031 53.367188 -10.648438 Z M 49.242188 -10.648438 "/></g></g></g><g fill="#000000" fill-opacity="1"><g transform="translate(230.024665, 77.856049)"><g><path d="M 28.992188 -9.910156 C 21.421875 -9.910156 19.144531 -10.15625 18.589844 -13.359375 L 43.148438 -13.296875 C 43.828125 -14.957031 44.566406 -17.542969 44.566406 -21.421875 C 44.566406 -29.914062 39.640625 -32.625 24.3125 -32.625 C 6.585938 -32.625 1.230469 -28.625 1.230469 -15.636719 C 1.230469 -2.339844 5.230469 1.230469 24.992188 1.230469 C 38.59375 1.230469 43.949219 -0.492188 43.949219 -0.492188 C 44.996094 -3.691406 45.242188 -7.324219 45.242188 -10.832031 C 39.332031 -10.035156 32.746094 -9.910156 28.992188 -9.910156 Z M 23.515625 -21.484375 C 27.578125 -21.484375 28.5 -19.945312 28.007812 -17.605469 L 18.527344 -17.667969 C 18.835938 -20.4375 20.003906 -21.484375 23.515625 -21.484375 Z M 23.515625 -21.484375 "/></g></g></g><g fill="#000000" fill-opacity="1"><g transform="translate(276.18847, 77.856049)"><g><path d="M 43.765625 -11.511719 C 38.964844 -11.019531 32.6875 -10.585938 26.160156 -10.585938 C 21.113281 -10.585938 19.390625 -11.511719 19.390625 -16.1875 C 19.390625 -20.3125 20.804688 -21.484375 23.761719 -21.484375 C 24.621094 -21.484375 25.484375 -21.421875 26.40625 -21.175781 L 26.40625 -14.464844 C 30.59375 -14.15625 36.871094 -14.21875 41.796875 -14.589844 C 42.71875 -19.019531 43.519531 -24.808594 43.519531 -30.40625 C 39.457031 -31.945312 33.363281 -32.625 23.699219 -32.625 C 5.292969 -32.625 1.230469 -27.332031 1.230469 -15.019531 C 1.230469 -2.894531 5.109375 1.230469 23.761719 1.230469 C 37.546875 1.230469 42.65625 -0.492188 42.65625 -0.492188 C 43.457031 -3.507812 43.890625 -7.878906 43.765625 -11.511719 Z M 43.765625 -11.511719 "/></g></g></g><g fill="#000000" fill-opacity="1"><g transform="translate(320.690361, 77.856049)"><g><path d="M 25.914062 -10.527344 C 23.207031 -10.527344 21.976562 -11.019531 22.035156 -14.402344 L 22.097656 -20.621094 C 24.992188 -20.621094 27.882812 -20.683594 30.714844 -20.742188 C 31.394531 -23.328125 31.699219 -28.316406 31.761719 -31.394531 L 22.28125 -31.578125 L 22.34375 -38.535156 C 16.742188 -38.964844 11.820312 -38.964844 6.21875 -38.535156 L 4.800781 -31.453125 C 3.632812 -31.453125 2.460938 -31.394531 1.292969 -31.394531 C 0.617188 -28.4375 0.246094 -24.253906 0.125 -20.742188 C 1.414062 -20.683594 2.769531 -20.683594 4.0625 -20.683594 L 3.941406 -14.035156 C 3.691406 -0.863281 6.21875 1.230469 19.207031 1.230469 C 24.253906 1.230469 28.992188 0.492188 31.023438 -0.125 C 31.824219 -3.324219 32.070312 -7.324219 32.070312 -10.894531 C 30.347656 -10.648438 27.269531 -10.527344 25.914062 -10.527344 Z M 25.914062 -10.527344 "/></g></g></g></svg>